<?xml version="1.0" standalone="no"?><!DOCTYPE svg PUBLIC "-//W3C//DTD SVG 1.1//EN" "http://www.w3.org/Graphics/SVG/1.1/DTD/svg11.dtd"><svg t="1595919112030" class="icon" viewBox="0 0 1024 1024" version="1.1" xmlns="http://www.w3.org/2000/svg" p-id="2493" xmlns:xlink="http://www.w3.org/1999/xlink" width="128" height="128"><defs><style type="text/css"></style></defs><path d="M512 709.28c-159.2 0-279.04-225.28-279.04-371.36 0-153.92 125.12-279.36 279.04-279.36 100.96 0 194.4 54.88 243.84 143.2 23.04 41.44 35.2 88.48 35.2 136 0 98.88-50.72 220.48-123.36 295.84-47.52 49.6-101.44 75.68-155.68 75.68zM512 112c-124.48 0-225.76 101.44-225.76 225.92C286.24 460.64 389.6 656 512 656c49.92 0 91.36-32.16 117.28-59.2 62.88-65.12 108.32-174.08 108.32-258.72 0-38.56-9.92-76.64-28.48-110.08A225.888 225.888 0 0 0 512 112z" p-id="2494"></path><path d="M359.36 417.6c-12.48 0-23.68-8.8-26.08-21.6-16.96-87.84 52.48-194.56 137.76-211.68 14.4-2.88 28.48 6.4 31.36 20.96 2.88 14.4-6.4 28.48-20.96 31.36-57.28 11.52-107.36 89.6-95.84 149.28a26.592 26.592 0 0 1-26.24 31.68z" p-id="2495"></path><path d="M512 965.28c-10.56 0-20.64-6.4-24.8-16.8-15.84-39.52-5.12-74.24 3.36-102.08 9.12-29.76 12.96-44.96-0.16-62.72-8.8-11.84-6.24-28.48 5.6-37.28s28.48-6.24 37.28 5.6c29.6 40.16 17.76 78.88 8.16 110.08-7.36 23.84-13.76 44.48-4.8 66.56 5.44 13.6-1.28 29.12-14.88 34.72-3.04 1.44-6.4 1.92-9.76 1.92z" p-id="2496"></path><path d="M574.56 771.84H449.6a26.608 26.608 0 0 1-25.28-35.04l20.64-62.4c3.68-10.88 13.76-18.24 25.28-18.24h83.84c11.52 0 21.76 7.36 25.28 18.24l20.64 62.4c2.72 8.16 1.28 17.12-3.68 24-5.28 6.88-13.28 11.04-21.76 11.04zM486.4 718.4h51.2l-3.04-9.12h-45.28l-2.88 9.12z" p-id="2497"></path></svg>