<?xml version="1.0" standalone="no"?><!DOCTYPE svg PUBLIC "-//W3C//DTD SVG 1.1//EN" "http://www.w3.org/Graphics/SVG/1.1/DTD/svg11.dtd"><svg class="icon" width="200px" height="200.00px" viewBox="0 0 1024 1024" version="1.1" xmlns="http://www.w3.org/2000/svg"><path d="M730.7 67.634c0.88-17.41 15.576-30.948 33.062-30.34 0.003 0 0.005 0 0.008 0.009l220.504 7.724 0.606 0.023c13.6 0.525 18.675 2.187 23.715 5.115 5.113 2.97 9.06 7.203 11.667 12.512 2.127 4.331 3.387 8.625 3.517 17.696 0.293 3.256 0.362 7.278 0.181 12.528l-7.675 220.506c0.008 0.003 0.008 0.005 0.008 0.008-0.62 17.662-15.44 31.479-33.101 30.851l-26.804-0.935c-14.058-0.5-19.207-2.167-24.32-5.138-5.115-2.97-9.062-7.203-11.668-12.511-2.607-5.309-3.911-10.562-3.429-24.62l3.245-93.182L765.26 352.378C816.043 422.168 846 508.085 846 601c0 233.616-189.384 423-423 423S0 834.616 0 601s189.384-423 423-423c104.783 0 200.667 38.1 274.556 101.2l149.321-139.242-77.72-2.723-0.606-0.022c-13.601-0.526-18.675-2.188-23.715-5.115-5.113-2.97-9.06-7.204-11.667-12.512-2.607-5.308-3.911-10.561-3.429-24.62l0.937-26.803zM423 282.089c-176.13 0-318.911 142.781-318.911 318.911S246.87 919.911 423 919.911 741.911 777.13 741.911 601 599.13 282.089 423 282.089z"  /></svg>