<?xml version="1.0" standalone="no"?><!DOCTYPE svg PUBLIC "-//W3C//DTD SVG 1.1//EN" "http://www.w3.org/Graphics/SVG/1.1/DTD/svg11.dtd"><svg class="icon" width="200px" height="200.00px" viewBox="0 0 1024 1024" version="1.1" xmlns="http://www.w3.org/2000/svg"><path d="M601 0c233.616 0 423 189.384 423 423S834.616 846 601 846c-96.885 0-186.162-32.572-257.479-87.363l-63.794 63.79 49.43 51.186c9.775 10.122 12.322 14.897 13.938 20.586 1.617 5.689 1.516 11.475-0.298 17.104s-4.527 10.313-14.648 20.087l-12.927 12.483c-10.121 9.774-14.897 12.321-20.585 13.938-5.689 1.616-11.476 1.515-17.105-0.299l-0.487-0.16c-5.417-1.817-10.109-4.66-19.6-14.487l-48.22-49.935-90.675 90.676c-9.95 9.95-14.68 12.58-20.34 14.295-5.659 1.715-11.447 1.715-17.106 0-5.66-1.716-10.39-4.346-20.34-14.295l-12.706-12.707c-9.95-9.95-12.58-14.68-14.295-20.34-1.716-5.659-1.716-11.447 0-17.106 1.715-5.66 4.345-10.39 14.295-20.34l91.904-91.905-49.428-51.185c-9.774-10.122-12.322-14.898-13.938-20.586-1.616-5.689-1.515-11.476 0.299-17.105 1.814-5.628 4.526-10.312 14.647-20.086l12.927-12.483c10.121-9.775 14.897-12.322 20.586-13.938 5.688-1.616 11.475-1.515 17.104 0.298 5.629 1.814 10.313 4.527 20.087 14.648l48.22 49.934 61.657-61.658C213.262 616.375 178 523.805 178 423 178 189.384 367.384 0 601 0z m0 104.089c-176.13 0-318.911 142.781-318.911 318.911S424.87 741.911 601 741.911 919.911 599.13 919.911 423 777.13 104.089 601 104.089z"  /></svg>