<?xml version="1.0" standalone="no"?><!DOCTYPE svg PUBLIC "-//W3C//DTD SVG 1.1//EN" "http://www.w3.org/Graphics/SVG/1.1/DTD/svg11.dtd"><svg t="1595919510469" class="icon" viewBox="0 0 1024 1024" version="1.1" xmlns="http://www.w3.org/2000/svg" p-id="4053" xmlns:xlink="http://www.w3.org/1999/xlink" width="128" height="128"><defs><style type="text/css"></style></defs><path d="M704.2 740c-19.3 0-35-15.7-35-35V447.9c0-19.3 15.7-35 35-35h138.4c19.3 0 35 15.7 35 35V705c0 19.3-15.7 35-35 35H704.2z m35-70h68.4V482.9h-68.4V670zM181.2 740c-19.3 0-35-15.7-35-35V321.8c0-19.3 15.7-35 35-35h138.4c19.3 0 35 15.7 35 35V705c0 19.3-15.7 35-35 35H181.2z m35-70h68.4V356.8h-68.4V670zM442.7 740c-19.3 0-35-15.7-35-35V127.9c0-19.3 15.7-35 35-35H581c19.3 0 35 15.7 35 35V705c0 19.3-15.7 35-35 35H442.7z m35-70H546V162.9h-68.4V670zM110.4 865.6c-19.3 0-35-15.8-34.9-35.1 0-19.3 15.7-34.9 35-34.9l803.1 2c19.3 0 35 15.8 34.9 35.1 0 19.3-15.7 34.9-35 34.9l-803.1-2z" p-id="4054"></path></svg>