<?xml version="1.0" standalone="no"?><!DOCTYPE svg PUBLIC "-//W3C//DTD SVG 1.1//EN" "http://www.w3.org/Graphics/SVG/1.1/DTD/svg11.dtd"><svg class="icon" width="200px" height="200.00px" viewBox="0 0 1024 1024" version="1.1" xmlns="http://www.w3.org/2000/svg"><path d="M40.888989 538.300316c-10.624624 0-21.228269-4.14695-29.159524-12.387902-15.43193-16.032343-14.88846-41.485487 1.212816-56.85248L447.019378 54.812472c17.440968-16.652738 40.518431-25.827778 64.975547-25.827777 24.447126 0 47.52359 9.169046 64.981541 25.817787l434.086088 414.257452c16.101276 15.364995 16.643746 40.820137 1.211817 56.853479-15.430931 16.031344-40.992968 16.573815-57.096242 1.20782L521.104029 112.872773c-4.845268-4.621487-13.35296-4.630478-18.195231-0.006993L68.824708 527.121233c-7.825358 7.468706-17.888531 11.179083-27.935719 11.179083z m780.705593 455.766915H202.411253c-51.954263 0-94.222985-42.088898-94.222986-93.821377V551.755177c0-22.208312 18.079344-40.210732 40.380566-40.210732 22.30322 0 40.382564 18.00242 40.382564 40.210732v348.489678c0 7.389783 6.039102 13.399914 13.460855 13.399914h619.183329c7.422751 0 13.461854-6.01113 13.461853-13.399914v-348.489678c0-22.208312 18.079344-40.210732 40.381565-40.210732 22.30322 0 40.382564 18.00242 40.382564 40.210732v348.489678c0 51.734478-42.271719 93.822377-94.22798 93.822376zM696.923331 615.194224c21.518985 0 38.961951 17.442966 38.961951 38.961952V955.776624a7.893292 7.893292 0 0 1-7.892293 7.893292h-79.469393a6.742416 6.742416 0 0 0 6.742416-6.742416V720.503383c0-13.79353-11.18208-24.97561-24.97561-24.975609H414.41322c-13.79353 0-24.97561 11.18208-24.97561 24.975609v236.424117a6.742416 6.742416 0 0 0 6.743414 6.743415h-79.469393a7.893292 7.893292 0 0 1-7.893291-7.894291V654.156176c0-21.518985 17.442966-38.961951 38.961951-38.961952h349.14304z m219.235902-318.154302c-22.301221 0-40.380566-18.00242-40.380566-40.210732V109.393171H727.714262c-22.30222 0-40.381565-18.003419-40.381565-40.210732 0-22.208312 18.079344-40.210732 40.381565-40.210732h148.065404c44.53351 0 80.762131 36.07577 80.762131 80.421464v147.436019c0 22.208312-18.079344 40.210732-40.381565 40.210732z"  /></svg>