<?xml version="1.0" standalone="no"?><!DOCTYPE svg PUBLIC "-//W3C//DTD SVG 1.1//EN" "http://www.w3.org/Graphics/SVG/1.1/DTD/svg11.dtd"><svg t="1597107061354" class="icon" viewBox="0 0 1024 1024" version="1.1" xmlns="http://www.w3.org/2000/svg" p-id="2826" xmlns:xlink="http://www.w3.org/1999/xlink" width="128" height="128"><defs><style type="text/css"></style></defs><path d="M923.9 419.4c-5.5 16.3-15.9 29.9-24 44.7-7.5 13.8-15.6 27.3-23.5 40.9-6.6 11.4-17.7 15.4-30.1 10.8-9.9-3.7-19.7-7.5-29.5-11.3-2.3-0.9-3.9-0.7-5.9 0.9-15.1 11.9-31.5 21.4-49.3 28.5-2.1 0.8-3.3 1.8-3.6 4.3-1.5 10.7-3.5 21.3-5.1 32-1.8 11.8-11.2 20.2-23.2 20.2-28.9 0-57.8-0.3-86.7 0.2-11.6 0.2-24.1-6.3-26.1-22.9-1.2-10.1-3-20.1-4.8-30.1-0.2-1.2-1.5-2.7-2.7-3.2-18.4-7.5-35.4-17.3-51-29.5-1.1-0.8-3.4-0.8-4.8-0.3-9.9 3.6-19.7 7.5-29.6 11.2-12.5 4.7-23.7 0.6-30.4-11-14.4-25-28.9-50-43.3-75-6.5-11.4-4.5-23.1 5.7-31.5 8.1-6.7 16.3-13.4 24.6-20 2-1.6 2.6-3.2 2.2-5.6-2.8-18.9-2.8-37.7 0-56.6 0.4-2.5-0.2-4.3-2.4-5.9-8.2-6.4-16.3-13.1-24.3-19.7-10.2-8.3-12.4-20-5.9-31.4 14.5-25.2 29.1-50.4 43.7-75.6 6.4-11 18-15.1 29.9-10.5 9.9 3.8 19.7 7.5 29.5 11.4 2.3 0.9 3.9 0.8 5.9-0.8 15-11.9 31.5-21.4 49.3-28.6 2.3-0.9 3.4-2.1 3.7-4.6 1.5-10.6 3.4-21.1 5.1-31.6 1.7-10.5 7.8-17.1 18.1-19.8 0.5-0.1 0.9-0.5 1.3-0.7h96.8c0.4 0.3 0.8 0.7 1.3 0.8 10.4 2.8 16.4 9.6 18 20.2 1.6 10.5 3.3 21.1 5.3 31.5 0.3 1.5 1.8 3.4 3.2 4 17.7 7.4 34.2 16.7 49.3 28.6 2.2 1.8 4.1 1.9 6.6 0.9 9.6-3.8 19.2-7.4 28.8-11.1 12.5-4.8 23.8-0.8 30.4 10.7 4.8 8.3 9.9 16.6 14.4 25.1 10.8 20.2 24.6 38.8 33.1 60.4v1.5c-0.5 10.7-6.6 17.9-14.9 23.9-6.8 4.9-13 10.6-19.6 15.7-1.9 1.5-2.4 2.9-2.1 5.2 0.7 5.6 1.6 11.3 1.6 16.9-0.2 13.6-1 27.2-1.4 40.8 0 1.6 0.8 3.7 2 4.7 6.4 5.5 12.9 11.1 19.8 16.1 8.2 6 14.1 13.1 14.7 23.6-0.1 0.6-0.1 1.1-0.1 1.6z m-423.6 3.4c7.9 13.7 15.6 27.1 23.5 40.4 0.5 0.8 2.7 1.3 3.7 0.9 8.4-3 16.6-6.4 24.9-9.4 9.3-3.4 17.8-2 25.1 4.8 17.9 16.5 38.4 28.4 61.7 35.7 9.4 2.9 14.8 9.5 16.5 19.1 1.5 8.5 2.8 17 4 25.6 0.4 2.9 1.5 3.8 4.4 3.8 13.9-0.1 27.9-0.1 41.8-0.1 1.1 0 2.3-0.1 3.6-0.2 1.3-8.4 3-16.5 3.9-24.6 1.4-12.8 7.8-20.8 20.4-24.6 22-6.7 41.3-18.5 58.2-34.1 7.5-6.9 16.1-8.7 25.7-5.1 8.2 3.1 16.4 6.2 24.5 9.4 1.9 0.7 3.2 0.8 4.4-1.3 7.1-12.6 14.3-25 21.6-37.5 1.2-2 0.8-3.1-0.9-4.5-6.6-5.2-13-10.6-19.6-15.8-8.8-6.9-11.5-15.6-9.1-26.4 5.1-23 5-46-0.1-69-2.3-10.3 0.4-18.8 8.7-25.5 6.5-5.2 13-10.6 19.6-15.8 2.1-1.6 2.7-2.9 1.2-5.4-7.2-12.2-14.3-24.5-21.3-36.8-1.3-2.2-2.4-2.4-4.6-1.5-8 3.2-16.1 6.2-24.1 9.3-9.7 3.7-18.4 2-26.1-5.1-17.5-16.1-37.7-27.7-60.3-35-3.9-1.3-7.7-3.6-10.8-6.3-5.2-4.4-6.3-11-7.2-17.4-1.2-8.2-2.6-16.4-4-24.7h-49c-1.3 8-2.9 15.8-3.7 23.7-1.3 13.6-7.9 21.9-21.3 26C614 202 595 213.7 578.4 229c-7.8 7.2-16.5 8.9-26.4 5.1-7.6-2.9-15.2-5.7-22.7-8.8-3.1-1.3-5-1.2-6.6 2.2-2.4 5-5.5 9.6-8.2 14.4-4.6 8-9.2 16-13.9 24.2 7.7 6.3 15.1 12.3 22.5 18.3 8.1 6.6 10.9 15 8.6 25.1-5.1 23-5.2 46-0.3 69 0.9 4.2 0.8 8.7 0.2 12.9-1 7-6.2 11.3-11.4 15.4-6.8 5.3-13.3 10.6-19.9 16zM98 571.9c16.1-28.5 32.1-57.2 48.5-85.6 5.7-9.8 17.3-13.2 28.4-9.1 10 3.7 20 7.5 29.9 11.5 2.5 1 4.2 0.7 6.2-1 15-11.8 31.4-21.2 49-28.3 2.5-1 3.5-2.4 3.8-5 1.5-10.4 3.2-20.9 5.1-31.2 2.3-12.8 10.9-20.4 23.8-20.5 29.3-0.2 58.6-0.2 87.8 0 13.1 0.1 21.8 8.2 23.9 21.3 2.6 16.5 5.6 33 7.7 49.6 1.6 12.8-7.6 23.9-20.1 25.4-12.9 1.6-24.1-7.2-26.2-20.2-1.3-8.6-2.8-17.3-4.2-25.9-0.4-2.5-1.3-3.4-4-3.4-14.1 0.1-28.1 0.1-42.2 0-2.8 0-3.8 1-4.2 3.7-1.3 9.2-2.7 18.3-4.5 27.4-1.7 9-7.4 14.9-16.1 17.6-23.2 7.2-43.6 19-61.4 35.4-7.6 7-16.3 8.4-25.8 4.9-8.2-3-16.3-6.3-24.6-9.3-1-0.4-3.2 0.1-3.7 0.9-7.9 13.3-15.6 26.7-23.5 40.4 7.6 6.2 15.1 12.3 22.5 18.3 8 6.5 10.8 14.7 8.7 24.8-1 4.9-1.8 9.9-2.5 14.8-2.8 19-1.4 37.7 2.6 56.4 2 9.2-0.7 17.1-7.9 23.2-7.6 6.4-15.4 12.6-23.4 19.1 8.1 14.1 16.2 28.1 24.5 42.4 6.6-2.5 13-5 19.5-7.4 4.3-1.6 8.7-3.4 13.1-4.4 7.6-1.6 14.4 0.6 20 5.8 18 16.7 38.6 28.6 62 35.9 9.5 3 14.9 9.8 16.5 19.5 1.4 8.5 2.7 17 4 25.6 0.3 1.7 0.5 3.3 2.9 3.3h46.8c1.4-8.6 2.9-16.9 4-25.3 1.2-8.9 4.2-16.5 12.4-21 2.7-1.5 5.7-2.4 8.6-3.3 21.2-7 40.1-18.1 56.5-33.3 8.4-7.8 17.6-9.5 28.1-5.3 8.5 3.4 17 6.5 25.9 10 1.6-2.7 3.2-5.3 4.7-8 6-10.4 11.9-20.8 18-31.1 1.6-2.7 1.2-4.1-1.2-6-6.4-5-12.6-10.2-19-15.3-8.5-6.8-11.4-15.4-9.1-26.1 5.2-23.2 5.1-46.5-0.2-69.7-2.4-10.5 1.7-20.6 10.3-25.8 8.7-5.3 19.5-4.5 27.4 2 4.5 3.7 6.8 8.5 8.1 14.1 3.9 17.3 5.4 34.9 4.7 52.6-0.3 7.2-1.2 14.4-1.6 21.6-0.1 1.5 0.7 3.5 1.8 4.4 8.1 6.8 16.4 13.4 24.5 20.1 10.4 8.5 12.7 20.1 6 31.7-14.6 25.5-29.3 50.9-44.1 76.3-5.8 9.9-17.4 14-28.5 10-10.2-3.7-20.2-7.6-30.3-11.6-2.4-1-4.1-0.9-6.2 0.8-14.7 11.7-30.8 21.1-48.3 28-3.3 1.3-4.4 3.2-4.9 6.4-1.5 9.8-3.2 19.6-4.6 29.4-1.4 10.2-6.9 17-16.6 20.3-0.4 0.2-0.8 0.6-1.2 0.9h-99.8c-0.5-0.3-1.1-0.7-1.6-0.9-9.1-3.1-14.6-9.3-16.2-18.9-1.8-10.7-3.6-21.3-5.2-32-0.3-2.3-1.2-3.6-3.4-4.5-18-7.3-34.7-16.9-50.1-28.8-1.2-0.9-3.6-1.2-5.1-0.7-9.9 3.6-19.7 7.5-29.6 11.2-12.5 4.7-23.7 0.8-30.4-10.8-6.8-11.7-13.7-23.3-20.3-35.1-9.1-16.3-18-32.6-27-49v-7c1.9-7.9 6.6-13.6 13.1-18.5 7.2-5.4 14-11.4 21.1-17 2-1.6 2.6-3.2 2.3-5.6-2.9-19-2.8-38 0-57 0.3-2.3-0.2-3.8-2.1-5.3-6.4-5-12.5-10.4-19-15.3-6.9-5.3-13.4-10.9-15.4-20 0.6-2.3 0.6-4.9 0.6-7.5z" p-id="2827"></path><path d="M243.7 648.2c0.1-51.2 41.9-92.6 93.4-92.4 50.6 0.2 91.6 40.8 92.5 91 1 53.1-41.3 93.7-90.5 94.9-53.5 1.3-95.9-42-95.4-93.5z m93.1-45.5c-25.5 0-46.2 20.5-46.3 45.7 0 25.7 20.5 46.5 45.9 46.6 25.5 0 46.3-20.7 46.4-46.1 0-25.4-20.7-46.2-46-46.2zM684.9 437.3c-51.5-0.1-93-41.5-93-92.9 0.1-51.6 41.8-93.2 93.3-93 51.2 0.2 92.7 41.6 92.9 92.8 0.2 51.4-41.6 93.1-93.2 93.1z m0.4-139.1c-25.3-0.1-46.3 20.5-46.5 45.6-0.2 25.7 20.3 46.5 46 46.9 24.7 0.4 46.1-20.9 46.4-45.9 0.3-25.2-20.6-46.4-45.9-46.6z" p-id="2828"></path></svg>