<?xml version="1.0" standalone="no"?><!DOCTYPE svg PUBLIC "-//W3C//DTD SVG 1.1//EN" "http://www.w3.org/Graphics/SVG/1.1/DTD/svg11.dtd"><svg t="1600307827775" class="icon" viewBox="0 0 1024 1024" version="1.1" xmlns="http://www.w3.org/2000/svg" p-id="3076" xmlns:xlink="http://www.w3.org/1999/xlink" width="128" height="128"><defs><style type="text/css"></style></defs><path d="M640 256a224 224 0 0 1 147.456 392.64 287.744 287.744 0 0 1 140.416 238.88L928 896h-64a224.064 224.064 0 0 0-140.768-208A222.4 222.4 0 0 1 640 704a223.36 223.36 0 0 1-83.232-16 224 224 0 0 0-140.64 200.32L416 896h-64c0-105.152 56.32-197.12 140.48-247.424A224 224 0 0 1 640 256z m-256-96c55.648 0 106.56 20.288 145.728 53.888A287.136 287.136 0 0 0 468.8 248.32a160 160 0 1 0-110.144 293.664c5.088 23.136 12.96 45.28 23.264 65.984a223.36 223.36 0 0 1-81.216-16 224 224 0 0 0-140.608 200.32L160 800H96a287.84 287.84 0 0 1 140.512-247.424A224 224 0 0 1 384 160z m254.624 479.968L640 640l-1.376-0.032zM640 320a160 160 0 0 0-6.944 319.84l5.568 0.128h2.752a160 160 0 0 0 158.464-153.024L800 480a160 160 0 0 0-160-160z" p-id="3077"></path></svg>