<svg id="图层_1" data-name="图层 1" xmlns="http://www.w3.org/2000/svg" viewBox="0 0 100 100"><defs><style>.cls-1{fill:#fff;}</style></defs><title>zjnu</title><path class="cls-1" d="M200.2,300.2v-100h100v100Zm50.25-.43c26.46.46,49.35-21.42,49.63-48.9a49.67,49.67,0,1,0-99.34,0C201,278.47,224,300.25,250.45,299.77Z" transform="translate(-200.2 -200.2)"/><path d="M250.45,299.77c-26.48.48-49.45-21.3-49.71-48.91a49.67,49.67,0,1,1,99.34,0C299.8,278.35,276.91,300.23,250.45,299.77Zm48.89-49.46a48.93,48.93,0,1,0-48.79,48.84A48.93,48.93,0,0,0,299.34,250.31Z" transform="translate(-200.2 -200.2)"/><path class="cls-1" d="M299.34,250.31a48.93,48.93,0,1,1-49-48.94A48.82,48.82,0,0,1,299.34,250.31Zm-48.9-34.06a34.06,34.06,0,1,0,34.06,34A34,34,0,0,0,250.44,216.25ZM284.49,230l.15-.26c1.09.63,2.47-.59,3.47.73a.78.78,0,0,0,.7,0,1.27,1.27,0,0,0,.12-.91,4.4,4.4,0,0,0-.67-1c.84,0,1.55,0,2.27,0,.46,0,1,.39,1.2-.4s0-1.22-.76-1.44c-.43-.13-.85-.28-1.18-.39l.58-.73a5.5,5.5,0,0,0-.8-.41,6.16,6.16,0,0,0-1-.13v-1l-1.17.55-.08-1.32c-.88.69-1.67,1.29-2.43,1.92-.15.12-.21.35-.32.53l.55.14,1,.31-.09.33a13.05,13.05,0,0,1-2.76-.63c-.62-.28-.84.12-1.19.32a.68.68,0,0,0-.09.48,3.26,3.26,0,0,0,1,.34c1.83.16,3.62.38,4.91,1.9.06.08,0,.23.06.53-1.11-.55-2.1-1-3-1.53-.63-.34-1-.23-1.34.4l.8.61-.12.32c-.53-.17-1.06-.34-1.59-.49l-1.26-.3c-.08.41-.12.67-.17.92-.37,1.71.23,2.32,1.92,2a3.67,3.67,0,0,1,1,.2c.28,0,.58.07.87.1a2.8,2.8,0,0,0-.06-.92A3.46,3.46,0,0,0,284.49,230Zm-73.27-2.13a2.83,2.83,0,0,0,.37.09c1.43.07,1.43.09,1.4,1.54a.93.93,0,0,0,.36.6c1.12.77,2.27,1.49,3.38,2.27a1.46,1.46,0,0,0,2.16-.2,4.9,4.9,0,0,1-.7-.83c-.19-.31-.45-.74-.36-1s.54-.51.87-.67a5.49,5.49,0,0,1,1.06-.27l.06-.26c-1.78-.48-3.34-1.22-3.8-3.22,1.53-.09,1.36,2.23,3.1,2a10.62,10.62,0,0,1-.46-1.24,11.89,11.89,0,0,1-.12-1.2l.26-.09,1.67,1.84a1.65,1.65,0,0,0-1.36-2.18c-.34-.1-.61-.58-.85-.92a6.34,6.34,0,0,1-.49-.93l-.47.11.19,2.23-1.45-.56a7.94,7.94,0,0,0,.31-1.56,5,5,0,0,0-.28-1.22,11.16,11.16,0,0,0-.91.91c-.1.13,0,.38-.09.58-.13.66-.27,1.31-.4,2l-.38.21a5.25,5.25,0,0,0-1-1.29c-.56-.38-1.1-.09-1.6.54l.68.14a2.69,2.69,0,0,1,2.47,3.15,7.87,7.87,0,0,0,.29,1.41l-1.67-.12c.13-1,1.7-1.88.25-2.95C213.1,226.27,211.69,226.94,211.22,227.82ZM243,209.69a2.16,2.16,0,0,1,1.49,2.21,16.37,16.37,0,0,0,.66,2.68l.49-.1c-.11-1-.26-2-.32-3a2.3,2.3,0,0,1,.27-1,7.87,7.87,0,0,0,.94-1.88c.25-1.66-.08-1.87-1.65-1.32-.05,0-.12,0-.41-.08l1.44-2.33c-1.52-.53-3.67,1.71-3.55,3.54l-1.6.58c-.2-.83,1.7-1.18.59-2.2l.37-1.1a6,6,0,0,0-1.2,0,1.69,1.69,0,0,0-.6.36l.61,1.25-.24.14-1.37-.67c.18,1.31.35,2.48.5,3.66a17.39,17.39,0,0,0,.25,2c.08.33.48.57.74.85a5.07,5.07,0,0,0,.64-.67C241.66,211.71,242.29,210.71,243,209.69Zm-11.1,4.7-.38-.4-2,1.23c-.16-1.16-.12-2.39-1.22-3.34l-1.58,2.57c.8.49,1.14-.25,1.8-.89.1,1.12.48,2.11.17,2.79a8.21,8.21,0,0,0-.95,2.7c0,.16-.19.32-.49.8a16.17,16.17,0,0,1-.7-1.75,1.26,1.26,0,0,0-1.58-1l1.56,2.59c.07.11.1.29.2.34.46.27.94.51,1.41.75.08-.47.17-1,.25-1.43s0-.84.2-1.08c.43-.5,1.06-.83,1.49-1.33C230.66,216.11,231.24,215.23,231.85,214.39Zm19.65,75.92.16,0c0,.92,0,1.84,0,2.75,0,.65.23.85.93.6V288.9c-.76-.27-1.12.05-1.4.7-.4,1-.89,1.88-1.41,2.95-.46-1.15-.9-2.08-1.2-3.06-.25-.8-.72-.83-1.53-.62,0,1.4,0,2.82,0,4.25,0,.2.21.4.32.6.13-.22.36-.44.37-.66.05-.93,0-1.86,0-2.78H248l1.49,3.56.36-.05Zm25.24-74a4.82,4.82,0,0,0,1-.64,1.34,1.34,0,0,0,.38-.9c0-.25-.42-.46-.64-.69-.18.22-.37.43-.53.66-.53.8-1.37,1.58-2.56.68l-.5-.35-.17.12.51,1.57c-.93.92-2.71.11-3.36,1.75a20.3,20.3,0,0,0,4.27-1,1.57,1.57,0,0,1,1.64.11c.51.33,1,.64,1.54,1C279.17,216.83,277.56,216.9,276.74,216.31ZM237.5,286.64a2.63,2.63,0,0,0-2.44,2.76,2.45,2.45,0,0,0,2.54,2.39,2.69,2.69,0,0,0,2.4-2.71A2.48,2.48,0,0,0,237.5,286.64ZM275,279.82l-.17.3,2.11,2.8a14.45,14.45,0,0,0-2.62-.61c-.75,0-1.55-.84-2.34,0l3,3.83a3.28,3.28,0,0,0,.38-.32c-.58-.94-1.17-1.86-1.78-2.81,1.58,0,3.05,1.11,4.84.57-1-1.29-1.84-2.4-2.72-3.48C275.62,280,275.28,279.92,275,279.82Zm-56.46-5c0,1.65-.93,3.15-.42,5,1.33-1.15,2.42-2.07,3.47-3,.15-.13.11-.48.17-.73l-.3-.09-2.66,2.26c.28-1.5.53-2.73.73-4a1.47,1.47,0,0,0-.22-.8.66.66,0,0,0-.51.07c-1.13,1-2.23,1.93-3.35,2.9l.29.44C216.87,276.55,217.49,275.38,218.57,274.84Zm13.38,15,.35,0c.67-1.29,1.35-2.57,2-3.88.08-.17-.11-.47-.17-.71l-.25,0-1.64,3c-.31-1.48-.55-2.71-.85-3.93a4.26,4.26,0,0,0-.62-.94c-.78,1.5-1.44,2.73-2,4-.09.2.08.52.13.79l.28-.07,1.6-3C231.25,286.81,231.13,288.46,232,289.82ZM242.2,288l-.83,4.93c1.59.12.79-1.37,1.45-1.83.76.21.68.93.83,1.49s.38,1.06,1.17.66l-.67-2.11c.76-.47,1.31-1.11.92-2C244.55,287.94,243.34,288.26,242.2,288Zm47-18,.36-.82-1.75-.88c.44-.91,1.2-.6,1.79-.62s1-.22.84-1l-2.19.17c-.3-.81-.73-1.52-1.62-1.41-1.41.17-1.31,1.55-1.94,2.49Zm-77.48-17.39-4.21.53c-.75.09-.59.5-.41,1l1.14-.14,1.12-.09c.29,2,.29,2-1.39,2.33-.72.13-.69.44-.43,1,1.43-.19,2.84-.36,4.24-.59.18,0,.3-.38.45-.58-.2-.11-.4-.3-.6-.3a9.86,9.86,0,0,0-1.34.14l-.29-2C211.75,253.3,211.75,253.3,211.71,252.58Zm55.4,32.54c.52,1,1,1.95,1.52,2.87a1.65,1.65,0,0,0,2.39.63c1.05-.5,1.55-1.34,1.17-2.21-.47-1.09-1.05-2.13-1.58-3.19l-.39,0a2.43,2.43,0,0,0,0,1c.31.73.73,1.41,1.07,2.14s.29,1.27-.43,1.62a1,1,0,0,1-1.48-.6L268,284.86c0-.07-.13-.12-.23-.22Zm-5.46-75.06.17.31c-1.27,0-1.59.89-2,1.71-1,1.77-.62,2.7,1.31,3.23l.48.13c1.5.39,1.87,0,1.47-1.51a1.93,1.93,0,0,1-2.54.39,1.3,1.3,0,0,1-.66-1c.23-1.54,1.48-1.85,2.89-2l-.39-.67.86-.63a2,2,0,0,0-2.6-.34Zm-35.87,70.67a2.36,2.36,0,0,0-2.38-2.06,2.48,2.48,0,0,0-2.4,1.75,2.55,2.55,0,0,0,.89,2.84c1.18,1,1.38,1,2.35-.16.55-.65.18-.8-.33-1l-1,1.06a1.74,1.74,0,0,1-1.18-1.81,2.05,2.05,0,0,1,1.41-1.77,1.8,1.8,0,0,1,2,.68A7,7,0,0,0,225.78,280.73Zm-8.07-10.11c-.32-.24-.56-.57-.76-.55-1.63.2-3.25.45-4.88.69l0,.34c.34.08.73.3,1,.22.78-.2,1,.35,1.27.81a.82.82,0,0,1-.14,1.21c-.53.45-.48.87.15,1.3Zm37,22.8.41.19a3.6,3.6,0,0,0,.5-1c.13-.78.72-.71,1.21-.68a1.3,1.3,0,0,1,1,.47c.35.62.71.78,1.34.4-.71-1.33-1.39-2.65-2.12-3.95a1.07,1.07,0,0,0-.64-.46c-.13,0-.44.19-.48.34C255.47,290.29,255.09,291.85,254.69,293.42Zm-43.52-43.71L207,246.93a16.7,16.7,0,0,0,0,4h.35l.14-2.59,4.19,2.73v-3.47h-.31Zm67.62,26.74c1.55.58,3,1.15,4.51,1.68a.7.7,0,0,0,.59-.18.66.66,0,0,0,.07-.61c-.71-1.42-1.46-2.82-2.2-4.22l-.51.18c.14,1.39,1.38,2.43,1.83,3.84l-3.73-1.51Zm-70.92-16.68.72,2.83h.4c.09-1-.87-2.67,1.31-2.32.36,1.23.36,1.23.94,1.21L211,260l1.27-.29.63,1.53.41-.15-.57-2.44Zm76.34,10-.42-.18-1.39,2.15,4.05,2.62c1.24-1.43,1.53-2,1.23-2.66l-1.19,1.57-1.33-.88.8-1.33-.25-.26L284.48,272l-1-.69Zm-27.37-55.6c.7,0,1.32.12,1.4-.86a4.34,4.34,0,0,1,.62-1.27c-.45-1-.34-1.41.71-2l-1.07-.8-1.24.53,1.27,1.13h-1.29l.33,1.2-1.91.19-.21,1,1.39-.23Zm31.47,46.61c-.39.06-.6,0-.71.12a1.73,1.73,0,0,0-.29,2.17c.67.84,1.35.38,2,0s1.21-1.06,1.8-.31c.24.29-.13,1.07-.24,1.75-.07,0,.09.12.21.09.61-.16,1.07-1.48.81-2.26a1.23,1.23,0,0,0-1.7-.72c-.52.21-1,.56-1.5.77-.23.1-.71.13-.76,0a1.62,1.62,0,0,1-.07-.88C287.91,261.36,288.07,261.2,288.31,260.8Zm.81-9.9c1.35-.47,2.41-1.73,4-1.5.2,0,.44-.24.66-.38-.23-.16-.47-.47-.68-.45a4.57,4.57,0,0,1-3-.88c-.35-.22-.75-.38-1.14-.58-.08.39-.08.39,1.89,1.79C288.88,250.25,288.88,250.25,289.12,250.9Zm.24,1.38c-.68.52-.93,3.17-.44,4,.11-.2.27-.37.26-.52-.07-1,.5-1.06,1.26-1s1.66.12,2.49.21c.66.07.83-.19.65-.85l-4.13-.36Zm-25.23,39.26c-.83-.84-1.51.23-2.26-.2l-1.17-3.89-.87.28,1.4,4.68Zm-3.21-84.12-1.4-1.69a3.26,3.26,0,0,1-.38.92c-.18.21-.57.25-.73.46a2.51,2.51,0,0,0-.44,1c0,.1.41.32.66.41,1.48.53,1.49.53,2.16-.9Zm-46.69,56.09-.31-.16L208.05,265c.19.69.86.79,1.57.6,1.37-.38,2.73-.82,4.07-1.31C213.93,264.19,214.06,263.78,214.23,263.51Zm74.09-5.89-.27.23c.19.26.32.69.56.75,1.37.37,2.77.65,4.17,1,.32-.56.26-.89-.39-1C291,258.24,289.68,257.93,288.32,257.62ZM215.08,266l-4.41,2,.42.83,4.4-2ZM277,278.15l2.93,3.15c.48.53.76.33,1-.27l-3.27-3.48Zm-14.19-72.53-1.53,2.75.19.2c.48-.58,2.15.67,1.72-1.33,0-.08.16-.2.22-.31C263.85,206.15,263.58,205.7,262.81,205.62Zm12.38,13.22-.34.08c0,.61-.05,1.23,0,1.84a3.59,3.59,0,0,0,.4,1.15c0,.07.47.06.5,0,.17-.41.46-.89.36-1.26A9.69,9.69,0,0,0,275.19,218.84ZM224,214.1l.82,1.41c.36-.37,1-.81.93-1C225.41,213.63,224.68,213.83,224,214.1Z" transform="translate(-200.2 -200.2)"/><path d="M250.44,216.25a34.06,34.06,0,1,1-34.1,33.8A34,34,0,0,1,250.44,216.25Zm-16.56,38.3a12.53,12.53,0,0,1-2.76,5.59c-1.54,1.89-3.25,3.64-4.87,5.47a2.69,2.69,0,0,0-.25.86c2.95-1,4.45-3.59,6.76-5.11a10.69,10.69,0,0,1-3.42,3.93c1.31,1.14,2,.37,2.83-.49a24.11,24.11,0,0,1,2.23-1.58c.3-.25.4-.74.62-1.1a2.87,2.87,0,0,1,.65-.81c.28-.21.7-.22,1-.44s.54-.86.93-1a1.44,1.44,0,0,0,1-1.58c0-.12.09-.25.15-.36l.45-.7c.23-.55.72-.91.9-1.39a25.19,25.19,0,0,0,.81-3c.39-1.54.79-3.08,1.14-4.63.41-1.77.8-3.54,1.15-5.32.22-1.17.22-2.38.52-3.52.57-2.16,1.24-4.29,2-6.4a22.12,22.12,0,0,1,1.71-4,15.54,15.54,0,0,1,2.2-2.55,1.47,1.47,0,0,1,2.63.56,2.2,2.2,0,0,0,.35.51,1.46,1.46,0,0,0,.63-2.41,5,5,0,0,0-3.7-2.06,3.3,3.3,0,0,0-1.94.47,17.75,17.75,0,0,0-2.42,1.84,14.66,14.66,0,0,0-4,4.79c-1.16,2.36-2.32,4.72-3.35,7.14-.67,1.59-1.14,3.27-1.67,4.92-.2.64-.3,1.31-.44,2s-.08,1.31-.42,1.69c-.91,1-.78,2.35-1.35,3.64,2.05-.19,1.47-2.09,2.56-3.06a11.62,11.62,0,0,1-.31,1.43c-.3.86-.67,1.7-1,2.56s-.56,1.75-.84,2.62a11.48,11.48,0,0,1,.06-1.44c.08-.44.34-.87.38-1.31,0-.23-.28-.48-.44-.72-.2.17-.54.29-.6.5-.25.95-1.34,1.7-.71,2.87,0,.07-.09.27-.18.34-1.06.69-1.44,1.9-2.17,2.84-.4.52-.77,1.07-1.16,1.6l.12.2,1.05-.47c-.47,1.53-.7,1.74-1.83,1.53-.44,1.15-.91,1.4-1.86.75l.25,1.43-.94-.71.18,1.17c-.31.08-.72.06-.91.26-1,1-1.9,2.1-2.81,3.19a.84.84,0,0,0-.06.68.69.69,0,0,0,.5.37,13.56,13.56,0,0,0,2.12-.33c.16,0,.25-.39.36-.6s.12-.42.26-.52.65-.21.84-.43c.37-.42.62-1,1-1.4,1.2-1.47,2.47-2.88,3.61-4.4a30.29,30.29,0,0,0,1.53-2.73A10.66,10.66,0,0,1,233.88,254.55Zm45.43,9,.07-.29a16.75,16.75,0,0,0-2.78-1,7.74,7.74,0,0,1-4.11-2.18,37.42,37.42,0,0,1-2.85-3.42,25.46,25.46,0,0,1-1.93-2.61c-1-1.61-1.83-3.27-2.68-4.93s-1.55-3.22-2.34-4.82c-.57-1.14-1.25-2.24-1.73-3.42-.61-1.47-1-3-1.6-4.5a33.22,33.22,0,0,0-1.69-3.93,21.48,21.48,0,0,0-2.09-3,6.37,6.37,0,0,0-1.34-1l-.11.17-.94-1.1-.29.19c.23.51.44,1,.68,1.54,1.31,2.77.79,5.87,1.59,8.75a53.31,53.31,0,0,1,.82,6.23c.26,1.69,1.09,3.29.78,5.07,0,.08.07.18.11.27.51,1.1,1,2.21,1.53,3.32s1,2.11,1.53,3.13a36.79,36.79,0,0,0,1.89,3.2,23.65,23.65,0,0,0,2.24,2.93,18.91,18.91,0,0,0,2.55,2.26,11.64,11.64,0,0,0,2.17,1.32c1.86.89,3.69.18,5.51-.24,1-.23,1.93-.88,2.89-.87s.69-.42.63-1Zm-32.62,11.71a3.25,3.25,0,0,0,3.15-2.19,1.91,1.91,0,0,0-1.41-2.53,2.53,2.53,0,0,0-1.82.66,1.68,1.68,0,0,0-.13,1.61c.28.4,1,.5,1.59.69a2,2,0,0,0,.63,0l.15.28Zm10.57-4.72a3.06,3.06,0,0,0-3.13,2.51,1.78,1.78,0,0,0,1.6,2.21,2.89,2.89,0,0,0,1.76-.83,1.51,1.51,0,0,0,.18-1.34,1.35,1.35,0,0,0-1.64-.79,3.62,3.62,0,0,1-.57,0l-.17-.29Zm-6.89,4.05a1.1,1.1,0,0,0,1.78.52c.56-.35,1.29-.95,1.34-1.51.13-1.31-1.12-1.56-2.1-2.06a3.07,3.07,0,0,1,1.15-.3c.42,0,1,.12.9-.62-1.94-.27-2.13-.15-2.85,1.72a9.1,9.1,0,0,1,1.4.43c.54.27,1.11.66.83,1.38s-.93.74-1.6.59C250.94,274.68,250.65,274.65,250.37,274.6Zm-7-3.72c.73.92.7,3.52,0,4.3h1.34v-4.75Z" transform="translate(-200.2 -200.2)"/><path d="M284.49,230a3.46,3.46,0,0,1,.57.78,2.8,2.8,0,0,1,.06.92c-.29,0-.59-.05-.87-.1a3.67,3.67,0,0,0-1-.2c-1.69.29-2.29-.32-1.92-2,0-.25.09-.51.17-.92l1.26.3c.53.15,1.06.32,1.59.49l.12-.32-.8-.61c.31-.63.71-.74,1.34-.4.94.52,1.93,1,3,1.53,0-.3,0-.45-.06-.53-1.29-1.52-3.08-1.74-4.91-1.9a3.26,3.26,0,0,1-1-.34.68.68,0,0,1,.09-.48c.35-.2.57-.6,1.19-.32a13.05,13.05,0,0,0,2.76.63l.09-.33-1-.31-.55-.14c.11-.18.17-.41.32-.53.76-.63,1.55-1.23,2.43-1.92l.08,1.32,1.17-.55v1a6.16,6.16,0,0,1,1,.13,5.5,5.5,0,0,1,.8.41l-.58.73c.33.11.75.26,1.18.39.75.22.94.71.76,1.44s-.74.42-1.2.4c-.72,0-1.43,0-2.27,0a4.4,4.4,0,0,1,.67,1,1.27,1.27,0,0,1-.12.91.78.78,0,0,1-.7,0c-1-1.32-2.38-.1-3.47-.73Zm4.53-3.5c.21,1.24.7,1.55,1.9,1.24Z" transform="translate(-200.2 -200.2)"/><path d="M211.22,227.82c.47-.88,1.88-1.55,2.48-1.11,1.45,1.07-.12,1.94-.25,2.95l1.67.12a7.87,7.87,0,0,1-.29-1.41,2.69,2.69,0,0,0-2.47-3.15l-.68-.14c.5-.63,1-.92,1.6-.54a5.25,5.25,0,0,1,1,1.29l.38-.21c.13-.66.27-1.31.4-2,0-.2,0-.45.09-.58a11.16,11.16,0,0,1,.91-.91,5,5,0,0,1,.28,1.22,7.94,7.94,0,0,1-.31,1.56l1.45.56-.19-2.23.47-.11a6.34,6.34,0,0,0,.49.93c.24.34.51.82.85.92a1.65,1.65,0,0,1,1.36,2.18l-1.67-1.84-.26.09a11.89,11.89,0,0,0,.12,1.2,10.62,10.62,0,0,0,.46,1.24c-1.74.2-1.57-2.12-3.1-2,.46,2,2,2.74,3.8,3.22l-.06.26a5.49,5.49,0,0,0-1.06.27c-.33.16-.78.38-.87.67s.17.71.36,1a4.9,4.9,0,0,0,.7.83,1.46,1.46,0,0,1-2.16.2c-1.11-.78-2.26-1.5-3.38-2.27a.93.93,0,0,1-.36-.6c0-1.45,0-1.47-1.4-1.54A2.83,2.83,0,0,1,211.22,227.82Zm4.1,1.43c.16.11.29.22.43.3.33.19.67.35,1,.52a4.57,4.57,0,0,0,0-1.17,6.66,6.66,0,0,0-.64-1.23Z" transform="translate(-200.2 -200.2)"/><path d="M243,209.69c-.66,1-1.29,2-1.95,3a5.07,5.07,0,0,1-.64.67c-.26-.28-.66-.52-.74-.85a17.39,17.39,0,0,1-.25-2c-.15-1.18-.32-2.35-.5-3.66l1.37.67.24-.14-.61-1.25a1.69,1.69,0,0,1,.6-.36,6,6,0,0,1,1.2,0l-.37,1.1c1.11,1-.79,1.37-.59,2.2l1.6-.58c-.12-1.83,2-4.07,3.55-3.54l-1.44,2.33c.29.06.36.1.41.08,1.57-.55,1.9-.34,1.65,1.32a7.87,7.87,0,0,1-.94,1.88,2.3,2.3,0,0,0-.27,1c.06,1,.21,2,.32,3l-.49.1a16.37,16.37,0,0,1-.66-2.68A2.16,2.16,0,0,0,243,209.69Zm0-.64a12.06,12.06,0,0,0,.59-1.25c.06-.18-.08-.41-.13-.62-.19.07-.47.08-.57.22A1.17,1.17,0,0,0,243,209.05Zm2.66-.84-.35-.07c-.73.47-.69,1,.09,1.86Z" transform="translate(-200.2 -200.2)"/><path d="M231.85,214.39c-.61.84-1.19,1.72-1.86,2.51-.43.5-1.06.83-1.49,1.33-.21.24-.14.72-.2,1.08s-.17,1-.25,1.43c-.47-.24-1-.48-1.41-.75-.1-.05-.13-.23-.2-.34l-1.56-2.59a1.26,1.26,0,0,1,1.58,1,16.17,16.17,0,0,0,.7,1.75c.3-.48.47-.64.49-.8a8.21,8.21,0,0,1,.95-2.7c.31-.68-.07-1.67-.17-2.79-.66.64-1,1.38-1.8.89l1.58-2.57c1.1,1,1.06,2.18,1.22,3.34l2-1.23Z" transform="translate(-200.2 -200.2)"/><path d="M251.5,290.31l-1.64,3.47-.36.05L248,290.27h-.24c0,.92,0,1.85,0,2.78,0,.22-.24.44-.37.66-.11-.2-.32-.4-.32-.6,0-1.43,0-2.85,0-4.25.81-.21,1.28-.18,1.53.62.3,1,.74,1.91,1.2,3.06.52-1.07,1-2,1.41-2.95.28-.65.64-1,1.4-.7v4.78c-.7.25-1,.05-.93-.6,0-.91,0-1.83,0-2.75Z" transform="translate(-200.2 -200.2)"/><path d="M276.74,216.31c.82.59,2.43.52,1.58,2.25-.51-.32-1-.63-1.54-1a1.57,1.57,0,0,0-1.64-.11,20.3,20.3,0,0,1-4.27,1c.65-1.64,2.43-.83,3.36-1.75l-.51-1.57.17-.12.5.35c1.19.9,2,.12,2.56-.68.16-.23.35-.44.53-.66.22.23.6.44.64.69a1.34,1.34,0,0,1-.38.9A4.82,4.82,0,0,1,276.74,216.31Z" transform="translate(-200.2 -200.2)"/><path d="M237.5,286.64a2.48,2.48,0,0,1,2.5,2.44,2.69,2.69,0,0,1-2.4,2.71,2.45,2.45,0,0,1-2.54-2.39A2.63,2.63,0,0,1,237.5,286.64Zm1.56,2.2a1.33,1.33,0,0,0-1.37-1.48c-.92,0-1.67,1-1.69,2.22a1.31,1.31,0,0,0,1.37,1.47C238.26,291.06,239,290,239.06,288.84Z" transform="translate(-200.2 -200.2)"/><path d="M275,279.82c.25.1.59.13.74.32.88,1.08,1.72,2.19,2.72,3.48-1.79.54-3.26-.57-4.84-.57.61.95,1.2,1.87,1.78,2.81a3.28,3.28,0,0,1-.38.32l-3-3.83c.79-.88,1.59-.08,2.34,0a14.45,14.45,0,0,1,2.62.61l-2.11-2.8Z" transform="translate(-200.2 -200.2)"/><path d="M218.57,274.84c-1.08.54-1.7,1.71-2.8,2l-.29-.44c1.12-1,2.22-1.94,3.35-2.9a.66.66,0,0,1,.51-.07,1.47,1.47,0,0,1,.22.8c-.2,1.24-.45,2.47-.73,4l2.66-2.26.3.09c-.06.25,0,.6-.17.73-1.05,1-2.14,1.88-3.47,3C217.64,278,218.56,276.49,218.57,274.84Z" transform="translate(-200.2 -200.2)"/><path d="M232,289.82c-.82-1.36-.7-3-1.22-4.68l-1.6,3-.28.07c0-.27-.22-.59-.13-.79.6-1.25,1.26-2.48,2-4a4.26,4.26,0,0,1,.62.94c.3,1.22.54,2.45.85,3.93l1.64-3,.25,0c.06.24.25.54.17.71-.64,1.31-1.32,2.59-2,3.88Z" transform="translate(-200.2 -200.2)"/><path d="M242.2,288c1.14.3,2.35,0,2.87,1.16.39.87-.16,1.51-.92,2l.67,2.11c-.79.4-1,0-1.17-.66s-.07-1.28-.83-1.49c-.66.46.14,1.95-1.45,1.83Zm.5,2.64a4.24,4.24,0,0,0,1.28-.39.91.91,0,0,0,.16-.88c-.19-.29-.61-.43-1.07-.73Z" transform="translate(-200.2 -200.2)"/><path d="M289.19,270l-4.51-2.05c.63-.94.53-2.32,1.94-2.49.89-.11,1.32.6,1.62,1.41l2.19-.17c.14.76-.17,1-.84,1s-1.35-.29-1.79.62l1.75.88Zm-1.87-1.89c0-.5.16-.93,0-1.23a1,1,0,0,0-.85-.44c-.35.12-.58.54-.94.9Z" transform="translate(-200.2 -200.2)"/><path d="M211.71,252.58c0,.72,0,.72-1.72,1.27l.29,2a9.86,9.86,0,0,1,1.34-.14c.2,0,.4.19.6.3-.15.2-.27.55-.45.58-1.4.23-2.81.4-4.24.59-.26-.54-.29-.85.43-1,1.68-.31,1.68-.34,1.39-2.33l-1.12.09-1.14.14c-.18-.48-.34-.89.41-1Z" transform="translate(-200.2 -200.2)"/><path d="M267.11,285.12l.65-.48c.1.1.19.15.23.22l1.39,2.54a1,1,0,0,0,1.48.6c.72-.35.74-1,.43-1.62s-.76-1.41-1.07-2.14a2.43,2.43,0,0,1,0-1l.39,0c.53,1.06,1.11,2.1,1.58,3.19.38.87-.12,1.71-1.17,2.21a1.65,1.65,0,0,1-2.39-.63C268.09,287.07,267.63,286.11,267.11,285.12Z" transform="translate(-200.2 -200.2)"/><path d="M261.65,210.06l-1-.31a2,2,0,0,1,2.6.34l-.86.63.39.67c-1.41.12-2.66.43-2.89,2a1.3,1.3,0,0,0,.66,1,1.93,1.93,0,0,0,2.54-.39c.4,1.54,0,1.9-1.47,1.51l-.48-.13c-1.93-.53-2.3-1.46-1.31-3.23.45-.82.77-1.73,2-1.71Z" transform="translate(-200.2 -200.2)"/><path d="M225.78,280.73a7,7,0,0,1-.6-.48,1.8,1.8,0,0,0-2-.68,2.05,2.05,0,0,0-1.41,1.77,1.74,1.74,0,0,0,1.18,1.81l1-1.06c.51.21.88.36.33,1-1,1.14-1.17,1.19-2.35.16a2.55,2.55,0,0,1-.89-2.84,2.48,2.48,0,0,1,2.4-1.75A2.36,2.36,0,0,1,225.78,280.73Z" transform="translate(-200.2 -200.2)"/><path d="M217.71,270.62l-3.36,4c-.63-.43-.68-.85-.15-1.3a.82.82,0,0,0,.14-1.21c-.3-.46-.49-1-1.27-.81-.3.08-.69-.14-1-.22l0-.34c1.63-.24,3.25-.49,4.88-.69C217.15,270.05,217.39,270.38,217.71,270.62Zm-3.31.5.72,1.27,1.38-1.61Z" transform="translate(-200.2 -200.2)"/><path d="M254.69,293.42c.4-1.57.78-3.13,1.2-4.69,0-.15.35-.38.48-.34a1.07,1.07,0,0,1,.64.46c.73,1.3,1.41,2.62,2.12,3.95-.63.38-1,.22-1.34-.4a1.3,1.3,0,0,0-1-.47c-.49,0-1.08-.1-1.21.68a3.6,3.6,0,0,1-.5,1Zm1.83-3.83-.23,0-.34,1.85,1.37-.24Z" transform="translate(-200.2 -200.2)"/><path d="M211.17,249.71l.21-2.11h.31v3.47l-4.19-2.73-.14,2.59H207a16.7,16.7,0,0,1,0-4Z" transform="translate(-200.2 -200.2)"/><path d="M278.79,276.45l.56-.82,3.73,1.51c-.45-1.41-1.69-2.45-1.83-3.84l.51-.18c.74,1.4,1.49,2.8,2.2,4.22a.66.66,0,0,1-.07.61.7.7,0,0,1-.59.18C281.81,277.6,280.34,277,278.79,276.45Z" transform="translate(-200.2 -200.2)"/><path d="M207.87,259.77l4.82-1.11.57,2.44-.41.15-.63-1.53L211,260l.29,1.49c-.58,0-.58,0-.94-1.21-2.18-.35-1.22,1.33-1.31,2.32h-.4Z" transform="translate(-200.2 -200.2)"/><path d="M284.21,269.79l-.72,1.52,1,.69,1.23-1.18.25.26-.8,1.33,1.33.88,1.19-1.57c.3.65,0,1.23-1.23,2.66l-4.05-2.62,1.39-2.15Z" transform="translate(-200.2 -200.2)"/><path d="M256.84,214.19v-1l-1.39.23.21-1,1.91-.19-.33-1.2h1.29l-1.27-1.13,1.24-.53,1.07.8c-1.05.56-1.16.94-.71,2a4.34,4.34,0,0,0-.62,1.27C258.16,214.31,257.54,214.16,256.84,214.19Z" transform="translate(-200.2 -200.2)"/><path d="M288.31,260.8c-.24.4-.4.56-.43.74a1.62,1.62,0,0,0,.07.88c.05.1.53.07.76,0,.52-.21,1-.56,1.5-.77a1.23,1.23,0,0,1,1.7.72c.26.78-.2,2.1-.81,2.26-.12,0-.28-.12-.21-.09.11-.68.48-1.46.24-1.75-.59-.75-1.22,0-1.8.31s-1.35.86-2,0a1.73,1.73,0,0,1,.29-2.17C287.71,260.83,287.92,260.86,288.31,260.8Z" transform="translate(-200.2 -200.2)"/><path d="M289.12,250.9c-.24-.65-.24-.65,1.77-2-2-1.4-2-1.4-1.89-1.79.39.2.79.36,1.14.58a4.57,4.57,0,0,0,3,.88c.21,0,.45.29.68.45-.22.14-.46.4-.66.38C291.53,249.17,290.47,250.43,289.12,250.9Z" transform="translate(-200.2 -200.2)"/><path d="M289.36,252.28l.09,1.53,4.13.36c.18.66,0,.92-.65.85-.83-.09-1.66-.11-2.49-.21s-1.33,0-1.26,1c0,.15-.15.32-.26.52C288.43,255.45,288.68,252.8,289.36,252.28Z" transform="translate(-200.2 -200.2)"/><path d="M264.13,291.54l-2.9.87-1.4-4.68.87-.28,1.17,3.89C262.62,291.77,263.3,290.7,264.13,291.54Z" transform="translate(-200.2 -200.2)"/><path d="M260.92,207.42l-.13.25c-.67,1.43-.68,1.43-2.16.9-.25-.09-.68-.31-.66-.41a2.51,2.51,0,0,1,.44-1c.16-.21.55-.25.73-.46a3.26,3.26,0,0,0,.38-.92Z" transform="translate(-200.2 -200.2)"/><path d="M214.23,263.51c-.17.27-.3.68-.54.77-1.34.49-2.7.93-4.07,1.31-.71.19-1.38.09-1.57-.6l5.87-1.64Z" transform="translate(-200.2 -200.2)"/><path d="M288.32,257.62c1.36.31,2.71.62,4.07.91.65.14.71.47.39,1-1.4-.31-2.8-.59-4.17-1-.24-.06-.37-.49-.56-.75Z" transform="translate(-200.2 -200.2)"/><path d="M215.08,266l.41.82-4.4,2-.42-.83Z" transform="translate(-200.2 -200.2)"/><path d="M277,278.15l.69-.6L281,281c-.27.6-.55.8-1,.27Z" transform="translate(-200.2 -200.2)"/><path d="M262.81,205.62c.77.08,1,.53.6,1.31-.06.11-.24.23-.22.31.43,2-1.24.75-1.72,1.33l-.19-.2Z" transform="translate(-200.2 -200.2)"/><path d="M275.19,218.84a9.69,9.69,0,0,1,.93,1.81c.1.37-.19.85-.36,1.26,0,.06-.47.07-.5,0a3.59,3.59,0,0,1-.4-1.15c-.06-.61,0-1.23,0-1.84Z" transform="translate(-200.2 -200.2)"/><path d="M224,214.1c.71-.27,1.44-.47,1.75.41.07.19-.57.63-.93,1Z" transform="translate(-200.2 -200.2)"/><path class="cls-1" d="M234.37,253.06c.28-.87.54-1.76.84-2.62s.68-1.7,1-2.56a11.62,11.62,0,0,0,.31-1.43c-1.09,1-.51,2.87-2.56,3.06.57-1.29.44-2.59,1.35-3.64.34-.38.29-1.12.42-1.69s.24-1.32.44-2c.53-1.65,1-3.33,1.67-4.92,1-2.42,2.19-4.78,3.35-7.14a14.66,14.66,0,0,1,4-4.79,17.75,17.75,0,0,1,2.42-1.84,3.3,3.3,0,0,1,1.94-.47,5,5,0,0,1,3.7,2.06,1.46,1.46,0,0,1-.63,2.41,2.2,2.2,0,0,1-.35-.51,1.47,1.47,0,0,0-2.63-.56,15.54,15.54,0,0,0-2.2,2.55,22.12,22.12,0,0,0-1.71,4c-.73,2.11-1.4,4.24-2,6.4-.3,1.14-.3,2.35-.52,3.52-.35,1.78-.74,3.55-1.15,5.32-.35,1.55-.75,3.09-1.14,4.63a25.19,25.19,0,0,1-.81,3c-.18.48-.67.84-.9,1.39l-.45.7c-.06.11-.16.24-.15.36a1.44,1.44,0,0,1-1,1.58c-.39.16-.58.73-.93,1s-.69.23-1,.44a2.87,2.87,0,0,0-.65.81c-.22.36-.32.85-.62,1.1a24.11,24.11,0,0,0-2.23,1.58c-.82.86-1.52,1.63-2.83.49a10.69,10.69,0,0,0,3.42-3.93c-2.31,1.52-3.81,4.07-6.76,5.11a2.69,2.69,0,0,1,.25-.86c1.62-1.83,3.33-3.58,4.87-5.47a12.53,12.53,0,0,0,2.76-5.59Z" transform="translate(-200.2 -200.2)"/><path class="cls-1" d="M279.31,263.56h-1.49c.06.59.35,1-.63,1s-1.91.64-2.89.87c-1.82.42-3.65,1.13-5.51.24a11.64,11.64,0,0,1-2.17-1.32,18.91,18.91,0,0,1-2.55-2.26,23.65,23.65,0,0,1-2.24-2.93,36.79,36.79,0,0,1-1.89-3.2c-.55-1-1-2.08-1.53-3.13s-1-2.22-1.53-3.32c0-.09-.12-.19-.11-.27.31-1.78-.52-3.38-.78-5.07a53.31,53.31,0,0,0-.82-6.23c-.8-2.88-.28-6-1.59-8.75-.24-.5-.45-1-.68-1.54l.29-.19.94,1.1.11-.17a6.37,6.37,0,0,1,1.34,1,21.48,21.48,0,0,1,2.09,3,33.22,33.22,0,0,1,1.69,3.93c.57,1.49,1,3,1.6,4.5.48,1.18,1.16,2.28,1.73,3.42.79,1.6,1.52,3.23,2.34,4.82s1.72,3.32,2.68,4.93a25.46,25.46,0,0,0,1.93,2.61,37.42,37.42,0,0,0,2.85,3.42,7.74,7.74,0,0,0,4.11,2.18,16.75,16.75,0,0,1,2.78,1Z" transform="translate(-200.2 -200.2)"/><path class="cls-1" d="M234.37,253.06l-.49,1.49a10.66,10.66,0,0,0-.95,1.18,30.29,30.29,0,0,1-1.53,2.73c-1.14,1.52-2.41,2.93-3.61,4.4-.35.44-.6,1-1,1.4-.19.22-.59.25-.84.43s-.17.34-.26.52-.2.56-.36.6a13.56,13.56,0,0,1-2.12.33.69.69,0,0,1-.5-.37.84.84,0,0,1,.06-.68c.91-1.09,1.84-2.16,2.81-3.19.19-.2.6-.18.91-.26l-.18-1.17.94.71-.25-1.43c.95.65,1.42.4,1.86-.75,1.13.21,1.36,0,1.83-1.53l-1.05.47-.12-.2c.39-.53.76-1.08,1.16-1.6.73-.94,1.11-2.15,2.17-2.84.09-.07.21-.27.18-.34-.63-1.17.46-1.92.71-2.87.06-.21.4-.33.6-.5.16.24.46.49.44.72,0,.44-.3.87-.38,1.31A11.48,11.48,0,0,0,234.37,253.06Z" transform="translate(-200.2 -200.2)"/><path class="cls-1" d="M246.69,275.27l2.16-1.51-.15-.28a2,2,0,0,1-.63,0c-.56-.19-1.31-.29-1.59-.69a1.68,1.68,0,0,1,.13-1.61,2.53,2.53,0,0,1,1.82-.66,1.91,1.91,0,0,1,1.41,2.53A3.25,3.25,0,0,1,246.69,275.27Zm2.41-2.72c-.2-.94-.23-1.69-1.13-1.7-.67,0-.91.48-.88,1.07s.31,1.23,1,1.21C248.47,273.12,248.82,272.73,249.1,272.55Z" transform="translate(-200.2 -200.2)"/><path class="cls-1" d="M257.26,270.55l-2,1.47.17.29a3.62,3.62,0,0,0,.57,0,1.35,1.35,0,0,1,1.64.79,1.51,1.51,0,0,1-.18,1.34,2.89,2.89,0,0,1-1.76.83,1.78,1.78,0,0,1-1.6-2.21A3.06,3.06,0,0,1,257.26,270.55Zm-2.32,2.7c.14.94.25,1.7,1.09,1.68a1.3,1.3,0,0,0,.89-.9c.08-.62-.18-1.33-1-1.35C255.6,272.67,255.23,273.08,254.94,273.25Z" transform="translate(-200.2 -200.2)"/><path class="cls-1" d="M250.37,274.6c.28,0,.57.08.85.15.67.15,1.32.14,1.6-.59s-.29-1.11-.83-1.38a9.1,9.1,0,0,0-1.4-.43c.72-1.87.91-2,2.85-1.72.06.74-.48.59-.9.62a3.07,3.07,0,0,0-1.15.3c1,.5,2.23.75,2.1,2.06-.05.56-.78,1.16-1.34,1.51A1.1,1.1,0,0,1,250.37,274.6Z" transform="translate(-200.2 -200.2)"/><path class="cls-1" d="M243.39,270.88l1.31-.45v4.75h-1.34C244.09,274.4,244.12,271.8,243.39,270.88Z" transform="translate(-200.2 -200.2)"/><path class="cls-1" d="M289,226.45l1.9,1.24C289.72,228,289.23,227.69,289,226.45Z" transform="translate(-200.2 -200.2)"/><path class="cls-1" d="M215.32,229.25l.78-1.58a6.66,6.66,0,0,1,.64,1.23,4.57,4.57,0,0,1,0,1.17c-.34-.17-.68-.33-1-.52C215.61,229.47,215.48,229.36,215.32,229.25Z" transform="translate(-200.2 -200.2)"/><path class="cls-1" d="M243,209.05a1.17,1.17,0,0,1-.11-1.65c.1-.14.38-.15.57-.22,0,.21.19.44.13.62A12.06,12.06,0,0,1,243,209.05Z" transform="translate(-200.2 -200.2)"/><path class="cls-1" d="M245.63,208.21l-.26,1.79c-.78-.86-.82-1.39-.09-1.86Z" transform="translate(-200.2 -200.2)"/><path class="cls-1" d="M239.06,288.84c0,1.2-.8,2.22-1.69,2.21a1.31,1.31,0,0,1-1.37-1.47c0-1.23.77-2.23,1.69-2.22A1.33,1.33,0,0,1,239.06,288.84Z" transform="translate(-200.2 -200.2)"/><path class="cls-1" d="M242.7,290.6l.37-2c.46.3.88.44,1.07.73a.91.91,0,0,1-.16.88A4.24,4.24,0,0,1,242.7,290.6Z" transform="translate(-200.2 -200.2)"/><path class="cls-1" d="M287.32,268.08l-1.77-.77c.36-.36.59-.78.94-.9a1,1,0,0,1,.85.44C287.48,267.15,287.34,267.58,287.32,268.08Z" transform="translate(-200.2 -200.2)"/><path class="cls-1" d="M214.4,271.12l2.1-.34-1.38,1.61Z" transform="translate(-200.2 -200.2)"/><path class="cls-1" d="M256.52,289.59l.8,1.65-1.37.24.34-1.85Z" transform="translate(-200.2 -200.2)"/><path d="M249.1,272.55c-.28.18-.63.57-1,.58-.71,0-1-.56-1-1.21s.21-1.08.88-1.07C248.87,270.86,248.9,271.61,249.1,272.55Z" transform="translate(-200.2 -200.2)"/><path d="M254.94,273.25c.29-.17.66-.58,1-.57.78,0,1,.73,1,1.35a1.3,1.3,0,0,1-.89.9C255.19,275,255.08,274.19,254.94,273.25Z" transform="translate(-200.2 -200.2)"/></svg>